<svg width="32" height="32" viewBox="0 0 32 32" fill="none" xmlns="http://www.w3.org/2000/svg">
<g clip-path="url(#clip0_44_18)">
<path fill-rule="evenodd" clip-rule="evenodd" d="M24.5248 29.4914C21.7328 29.4914 19.928 28.1603 19.048 26.4195L21.496 25.0016C22.1408 26.0544 22.9776 26.8273 24.4608 26.8273C25.7056 26.8273 26.5008 26.2045 26.5008 25.3453C26.5008 24.0525 24.776 23.5474 23.5584 23.0258C21.3888 22.1026 19.9488 20.9426 19.9488 18.493C19.9488 16.2386 21.6672 14.5203 24.3536 14.5203C26.264 14.5203 27.64 15.1858 28.6272 16.925L26.2864 18.4289C25.7712 17.5057 25.2128 17.1406 24.3536 17.1406C23.472 17.1406 22.9136 17.6993 22.9136 18.4289C22.9136 19.3313 23.472 19.6963 24.7616 20.2547C27.464 21.4131 29.5088 22.3231 29.5088 25.3023C29.5088 28.0095 27.3824 29.4914 24.5248 29.4914ZM17.6 24.9586C17.6 28.0738 15.6816 29.7203 13.0176 29.7203C10.6112 29.7203 9.16959 28.8 8.46079 27.2H8.43682H8.42559H8.41919L10.8656 25.4898C11.3376 26.3266 11.7632 26.9203 12.7936 26.9203C13.7824 26.9203 14.4 26.4196 14.4 24.9172V14.4H17.6V24.9586ZM0 32H32V0H0V32Z" fill="orange"/>
</g>
<defs>
<clipPath id="clip0_44_18">
<rect width="32" height="32" fill="black"/>
</clipPath>
</defs>
</svg>
