<svg width="40" height="40" viewBox="0 0 40 40" fill="none" xmlns="http://www.w3.org/2000/svg">
<g clip-path="url(#clip0_45_11)">
<path d="M36.7966 0.00358728H3.42469C2.99455 -0.0165609 2.56464 0.0483088 2.1596 0.19452C1.75456 0.340732 1.38235 0.565385 1.06423 0.855609C0.746132 1.14586 0.488381 1.496 0.305772 1.88596C0.123164 2.27595 0.0192482 2.69812 0 3.1283V36.5753C0.0251977 37.4755 0.394113 38.3322 1.03098 38.9688C1.66785 39.6058 2.52437 39.9748 3.42469 40H36.7966C37.6718 39.961 38.497 39.5805 39.0952 38.9403C39.6934 38.3002 40.0168 37.4512 39.9963 36.5753V3.1283C40.0036 2.70959 39.9251 2.29385 39.7659 1.90654C39.6066 1.51925 39.3699 1.16856 39.0702 0.875957C38.7707 0.583384 38.4145 0.355106 38.0235 0.205095C37.6326 0.0550832 37.2151 -0.0134862 36.7966 0.00358728ZM12.4989 33.3506H6.67439V15.5272H12.4989V33.3506ZM9.72411 12.8274C9.31767 12.8416 8.91268 12.7715 8.53462 12.6217C8.15653 12.4719 7.81351 12.2455 7.52714 11.9567C7.24074 11.668 7.01713 11.3231 6.8704 10.9438C6.72363 10.5645 6.65692 10.159 6.67439 9.75269C6.65642 9.34198 6.72448 8.93207 6.87425 8.54923C7.02401 8.16636 7.25214 7.81905 7.54398 7.52955C7.83586 7.24003 8.185 7.01472 8.56904 6.86808C8.9531 6.72142 9.36357 6.65668 9.7741 6.67798C10.1805 6.66383 10.5855 6.73385 10.9636 6.88368C11.3417 7.03352 11.6847 7.25992 11.9711 7.54867C12.2575 7.83742 12.4811 8.18226 12.6278 8.56155C12.7746 8.94084 12.8413 9.34638 12.8238 9.75269C12.8418 10.1634 12.7737 10.5733 12.624 10.9562C12.4742 11.339 12.2461 11.6863 11.9542 11.9758C11.6624 12.2654 11.3132 12.4907 10.9292 12.6373C10.5451 12.784 10.1346 12.8487 9.72411 12.8274ZM33.3469 33.3506H27.4975V23.6015C27.4975 21.2767 26.6726 19.6769 24.5977 19.6769C23.9533 19.6824 23.3261 19.8871 22.8027 20.2631C22.279 20.639 21.8845 21.1677 21.673 21.7767C21.5105 22.2331 21.4425 22.7178 21.473 23.2015V33.3506H15.7236V15.5272H21.473V18.027C21.9842 17.0878 22.7449 16.3084 23.6713 15.7745C24.5977 15.2408 25.6537 14.9735 26.7226 15.0022C30.4972 15.0022 33.3469 17.5021 33.3469 22.8266V33.3506Z" fill="skyblue"/>
</g>
<defs>
<clipPath id="clip0_45_11">
<rect width="40" height="40" fill="white"/>
</clipPath>
</defs>
</svg>
