<svg width="32" height="28" viewBox="0 0 32 28" fill="none" xmlns="http://www.w3.org/2000/svg">
<path d="M26.1375 9.07422C25.8 8.96172 25.4625 8.85547 25.125 8.75547C25.1812 8.52422 25.2312 8.29297 25.2812 8.06172C26.05 4.33672 25.5437 1.34297 23.8375 0.355468C22.1937 -0.588282 19.5125 0.392968 16.8 2.75547C16.5312 2.98672 16.2687 3.23047 16.0187 3.47422C15.85 3.31172 15.675 3.14922 15.5 2.99297C12.6562 0.467968 9.80625 -0.594531 8.1 0.399218C6.4625 1.34922 5.975 4.16797 6.6625 7.69297C6.73125 8.04297 6.80625 8.38672 6.89375 8.73672C6.49375 8.84922 6.1 8.97422 5.73125 9.10547C2.39375 10.2617 0 12.0867 0 13.9742C0 15.9242 2.55 17.8805 6.01875 19.068C6.3 19.1617 6.58125 19.2555 6.86875 19.3367C6.775 19.7117 6.69375 20.0805 6.61875 20.4617C5.9625 23.9305 6.475 26.6805 8.1125 27.6242C9.8 28.5992 12.6375 27.5992 15.4 25.1805C15.6187 24.9867 15.8375 24.7867 16.0562 24.5742C16.3312 24.843 16.6188 25.0992 16.9062 25.3492C19.5812 27.6492 22.225 28.5805 23.8563 27.6367C25.5438 26.6617 26.0938 23.7055 25.3813 20.1055C25.325 19.8305 25.2625 19.5492 25.1938 19.2617C25.3938 19.2055 25.5875 19.143 25.7812 19.0805C29.3875 17.8867 32 15.9555 32 13.9742C32 12.0805 29.5375 10.243 26.1375 9.07422ZM17.6812 3.76797C20.0062 1.74297 22.175 0.949218 23.1625 1.51797C24.2188 2.12422 24.625 4.57422 23.9625 7.79297C23.9187 8.00547 23.875 8.21172 23.8188 8.41797C22.4313 8.10547 21.025 7.88047 19.6125 7.75547C18.8 6.59297 17.9125 5.48047 16.95 4.43672C17.1938 4.20547 17.4312 3.98672 17.6812 3.76797ZM10.45 17.218C10.7687 17.7617 11.0938 18.3055 11.4375 18.8367C10.4625 18.7305 9.49375 18.5742 8.5375 18.368C8.8125 17.468 9.15625 16.5367 9.55625 15.5867C9.84375 16.1367 10.1375 16.6805 10.45 17.218ZM8.55625 9.69922C9.45625 9.49922 10.4125 9.33672 11.4062 9.21172C11.075 9.73047 10.75 10.2617 10.4438 10.7992C10.1375 11.3305 9.8375 11.8742 9.55625 12.4242C9.1625 11.493 8.83125 10.5805 8.55625 9.69922ZM10.2688 14.0055C10.6813 13.143 11.1312 12.2992 11.6062 11.468C12.0812 10.6367 12.5938 9.83047 13.1313 9.03672C14.0688 8.96797 15.025 8.93047 16 8.93047C16.975 8.93047 17.9375 8.96797 18.8687 9.03672C19.4 9.82422 19.9063 10.6305 20.3875 11.4555C20.8688 12.2805 21.3187 13.1242 21.7437 13.9805C21.325 14.843 20.875 15.693 20.3937 16.5305C19.9187 17.3617 19.4125 18.168 18.8813 18.968C17.95 19.0367 16.9812 19.068 16 19.068C15.0188 19.068 14.0687 19.0367 13.15 18.9805C12.6062 18.1867 12.0938 17.3742 11.6125 16.543C11.1313 15.7117 10.6875 14.868 10.2688 14.0055ZM21.5562 17.2055C21.875 16.6555 22.175 16.0992 22.4688 15.5367C22.8688 16.443 23.2187 17.3617 23.525 18.3055C22.5562 18.5242 21.575 18.693 20.5875 18.8055C20.925 18.2805 21.2437 17.743 21.5562 17.2055ZM22.4562 12.4242C22.1625 11.8742 21.8625 11.3242 21.55 10.7867C21.2437 10.2555 20.925 9.73047 20.5938 9.21172C21.6 9.33672 22.5625 9.50547 23.4625 9.71172C23.175 10.6367 22.8375 11.5367 22.4562 12.4242ZM16.0125 5.39297C16.6688 6.10547 17.2875 6.85547 17.8625 7.63047C16.625 7.57422 15.3813 7.57422 14.1438 7.63047C14.7563 6.82422 15.3875 6.07422 16.0125 5.39297ZM8.7625 1.56172C9.8125 0.949218 12.1438 1.82422 14.6 3.99922C14.7563 4.13672 14.9125 4.28672 15.075 4.43672C14.1062 5.48047 13.2125 6.59297 12.3938 7.75547C10.9813 7.88047 9.58125 8.09922 8.19375 8.40547C8.1125 8.08672 8.04375 7.76172 7.975 7.43672C7.3875 4.41172 7.775 2.13047 8.7625 1.56172ZM7.23125 18.0367C6.96875 17.9617 6.7125 17.8805 6.45625 17.793C5.125 17.3742 3.6125 16.7117 2.51875 15.843C1.8875 15.4055 1.4625 14.7305 1.34375 13.9742C1.34375 12.8305 3.31875 11.368 6.16875 10.3742C6.525 10.2492 6.8875 10.1367 7.25 10.0305C7.675 11.3867 8.1875 12.718 8.78125 14.0055C8.18125 15.3117 7.6625 16.6617 7.23125 18.0367ZM14.5188 24.1617C13.4875 25.1055 12.2937 25.8555 10.9937 26.368C10.3 26.6992 9.5 26.7305 8.7875 26.4492C7.79375 25.8742 7.38125 23.668 7.94375 20.6992C8.0125 20.3492 8.0875 19.9992 8.175 19.6555C9.575 19.9555 10.9875 20.1617 12.4187 20.268C13.2437 21.4367 14.15 22.5555 15.1187 23.6055C14.9187 23.7992 14.7188 23.9867 14.5188 24.1617ZM16.05 22.643C15.4125 21.9555 14.775 21.193 14.1562 20.3742C14.7563 20.3992 15.375 20.4117 16 20.4117C16.6438 20.4117 17.275 20.3992 17.9 20.368C17.325 21.1617 16.7062 21.918 16.05 22.643ZM24.2188 24.518C24.1625 25.2805 23.7875 25.993 23.1875 26.4742C22.1938 27.0492 20.075 26.2992 17.7875 24.3367C17.525 24.1117 17.2625 23.868 16.9937 23.618C17.95 22.5617 18.8313 21.443 19.6313 20.268C21.0625 20.1492 22.4875 19.9305 23.8937 19.6117C23.9562 19.868 24.0125 20.1242 24.0625 20.3742C24.3688 21.7242 24.4188 23.1305 24.2188 24.518ZM25.3563 17.7992C25.1813 17.8555 25.0063 17.9117 24.825 17.9617C24.3875 16.5992 23.85 15.268 23.2313 13.9742C23.8313 12.6992 24.3375 11.3867 24.7625 10.043C25.0875 10.1367 25.4 10.2367 25.7 10.3367C28.6125 11.3367 30.6562 12.8242 30.6562 13.9617C30.6562 15.1867 28.475 16.768 25.3563 17.7992ZM16 16.8617C17.5812 16.8617 18.8625 15.5805 18.8625 13.9992C18.8625 12.418 17.5812 11.1367 16 11.1367C14.4188 11.1367 13.1375 12.418 13.1375 13.9992C13.1375 15.5805 14.4188 16.8617 16 16.8617Z" fill="orange"/>
</svg>
